<?xml version="1.0" encoding="utf-8"?><svg xmlns="http://www.w3.org/2000/svg" xmlns:xlink="http://www.w3.org/1999/xlink" width="1536" height="882" preserveAspectRatio="xMidYMid" viewBox="0 0 1536 882" style="z-index:1;display:block;background-color:rgb(241, 242, 243);animation-play-state:paused" ><g transform="translate(768,441) scale(1,1) translate(-768,-441)" style="animation-play-state:paused" ><linearGradient id="lg-0.5375213340245422" x1="0" x2="1" y1="0" y2="0" style="animation-play-state:paused" ><stop stop-color="#85a2b6" offset="0" style="animation-play-state:paused" ></stop>

  
<stop stop-color="#bbcedd" offset="1" style="animation-play-state:paused" ></stop></linearGradient>
<path d="M 0 0 M 0 766.502 Q 153.6 750.922 307.2 743.063 T 614.4 696.32 T 921.6 679.233 T 1228.8 682.547 T 1536 680.517 L 1536 242.916 Q 1382.4 243.042 1228.8 241.565 T 921.6 135.189 T 614.4 119.312 T 307.2 83.2909 T 0 102.457 Z" fill="url(#lg-0.5375213340245422)" opacity="0.4" style="opacity:0.4;animation-play-state:paused" ></path>
<path d="M 0 0 M 0 769.961 Q 153.6 769.218 307.2 766.74 T 614.4 697.349 T 921.6 656.396 T 1228.8 683.715 T 1536 650.696 L 1536 258.166 Q 1382.4 177.205 1228.8 172.273 T 921.6 141.987 T 614.4 181.864 T 307.2 145.106 T 0 120.843 Z" fill="url(#lg-0.5375213340245422)" opacity="0.4" style="opacity:0.4;animation-play-state:paused" ></path>
<path d="M 0 0 M 0 793.968 Q 153.6 765.761 307.2 760.705 T 614.4 701.281 T 921.6 683.755 T 1228.8 668.049 T 1536 622.361 L 1536 259.726 Q 1382.4 212.135 1228.8 202.754 T 921.6 195.332 T 614.4 138.144 T 307.2 101.824 T 0 103.511 Z" fill="url(#lg-0.5375213340245422)" opacity="0.4" style="opacity:0.4;animation-play-state:paused" ></path>
<path d="M 0 0 M 0 809.492 Q 153.6 767.083 307.2 761.332 T 614.4 704.108 T 921.6 699 T 1228.8 696.162 T 1536 654.622 L 1536 219.476 Q 1382.4 186.989 1228.8 179.155 T 921.6 143.829 T 614.4 161.733 T 307.2 135.78 T 0 41.2411 Z" fill="url(#lg-0.5375213340245422)" opacity="0.4" style="opacity:0.4;animation-play-state:paused" ></path></g></svg>